<?xml version="1.0" encoding="utf-8"?>
<!-- Generator: Adobe Illustrator 26.5.3, SVG Export Plug-In . SVG Version: 6.00 Build 0)  -->
<svg version="1.1" id="Layer_1" xmlns="http://www.w3.org/2000/svg" xmlns:xlink="http://www.w3.org/1999/xlink" x="0px" y="0px"
	 viewBox="0 0 512 512" style="enable-background:new 0 0 512 512;" xml:space="preserve">
<style type="text/css">
	.st0{fill:#FFFFFF;filter:url(#Adobe_OpacityMaskFilter);}
	.st1{mask:url(#mask0_577_684_00000179643155420805591920000005815785466793435548_);}
	.st2{fill:#265DF5;}
	.st3{fill:url(#SVGID_1_);}
	.st4{fill:#FFFFFF;}
</style>
<defs>
	<filter id="Adobe_OpacityMaskFilter" filterUnits="userSpaceOnUse" x="42.8" y="197.8" width="426.5" height="116.4">
		<feColorMatrix  type="matrix" values="1 0 0 0 0  0 1 0 0 0  0 0 1 0 0  0 0 0 1 0"/>
	</filter>
</defs>
<mask maskUnits="userSpaceOnUse" x="42.8" y="197.8" width="426.5" height="116.4" id="mask0_577_684_00000179643155420805591920000005815785466793435548_">
	<path class="st0" d="M472.6,197.8H42.8v116.4h429.9V197.8z"/>
</mask>
<g class="st1">
	<path class="st2" d="M223.4,230.3c-3,0-6,0.6-8.7,1.8c-2.6,1.2-4.8,2.9-6.5,5.1v-6.2h-12.8v49.9h12.8v-27.5c0-4,1-7,3.1-9.1
		c2-2.1,4.8-3.2,8.4-3.2c3.5,0,6.2,1.1,8.2,3.2c2,2.1,3,5.2,3,9.1v27.5h12.8v-29.3c0-6.7-1.9-12-5.6-15.7
		C234.3,232.2,229.4,230.3,223.4,230.3z"/>
	<path class="st2" d="M290.7,238.2c-1.8-2.4-4.1-4.3-6.8-5.7c-2.8-1.5-6.1-2.3-9.9-2.3c-4.1-0.1-8.2,1-11.8,3.2
		c-3.6,2.2-6.5,5.3-8.3,9c-2,3.9-3.1,8.4-3.1,13.4c0,5.1,1,9.6,3.1,13.6c1.9,3.7,4.8,6.9,8.3,9.1c3.5,2.2,7.5,3.3,11.7,3.2
		c3.5,0.1,6.9-0.7,10-2.3c2.7-1.4,5-3.4,6.8-5.8v7.3h12.9v-49.9h-12.9V238.2z M288.9,263.9c-1.1,2.1-2.9,3.8-4.9,5
		c-2,1.2-4.3,1.8-6.7,1.8c-2.3,0-4.6-0.6-6.5-1.8c-2.1-1.3-3.8-3-4.9-5.2c-1.3-2.4-1.9-5.1-1.9-7.9c0-3,0.6-5.6,1.9-7.8
		c0.8-1.5,2-2.8,3.4-3.9c1.4-1.1,3-1.9,4.7-2.3c1.7-0.5,3.5-0.6,5.2-0.4c1.7,0.2,3.4,0.8,4.9,1.6c2.1,1.2,3.8,2.9,4.9,5
		c1.2,2.2,1.8,4.8,1.8,7.9S290.1,261.7,288.9,263.9z"/>
	<path class="st2" d="M347.2,258.5c0,4-1,7-3,9.1c-2,2.1-4.8,3.2-8.3,3.2c-3.5,0-6.2-1.1-8.2-3.2c-2-2.1-3-5.2-3-9.1v-27.5h-12.8
		v29.3c0,4.4,0.9,8.3,2.6,11.5c1.6,3.1,4.1,5.6,7.2,7.3c3.2,1.7,6.9,2.5,10.5,2.5c3,0,5.9-0.6,8.7-1.8c2.5-1.1,4.8-2.9,6.5-5.1v6.3
		h12.9v-49.9h-12.9V258.5z"/>
	<path class="st2" d="M414.7,231.1H398l-17,21.2v-37.9h-12.8V281H381v-21.2l17.2,21.2h16.7l-22.5-24.8L414.7,231.1z"/>
	<path class="st2" d="M433.6,238.8v-7.8h-12.8V281h12.8v-24.8c0-4.6,1-7.9,3.1-9.7c2-1.9,5.1-2.8,9.1-2.8h3.4v-13.2
		c-3.1-0.1-6.2,0.7-9,2.2C437.5,234,435.2,236.2,433.6,238.8z"/>
	<path class="st2" d="M468,231.1h-12.8V281H468V231.1z"/>
	<path class="st2" d="M461.6,225.1c4.2,0,7.7-3.4,7.7-7.5c0-4.2-3.4-7.5-7.7-7.5c-4.2,0-7.7,3.4-7.7,7.5
		C453.9,221.7,457.3,225.1,461.6,225.1z"/>
	<path class="st2" d="M101.9,314.2c32.7,0,59.2-26.1,59.2-58.2s-26.5-58.2-59.2-58.2c-32.7,0-59.2,26.1-59.2,58.2
		S69.3,314.2,101.9,314.2z"/>
	
		<linearGradient id="SVGID_1_" gradientUnits="userSpaceOnUse" x1="113.484" y1="227.321" x2="79.4278" y2="267.2662" gradientTransform="matrix(1 0 0 -1 0 514)">
		<stop  offset="0" style="stop-color:#FFFFFF"/>
		<stop  offset="1" style="stop-color:#265DF5"/>
	</linearGradient>
	<path class="st3" d="M119.7,277.6l-0.1,5.9l-0.4,17v0.7c-29.3-24.9-34.3-31-35.1-32.8l0-0.1c-0.1-0.3-0.1-0.7-0.1-1.1
		c0-0.1,0-0.3,0.1-0.4c0-0.1,0.1-0.2,0.1-0.3c0.3-0.8,0.8-1.6,1.3-2.2c0.4-0.5,0.8-1,1.3-1.4c1-1,2.1-1.9,3.2-2.7
		c0.6-0.4,1.2-0.8,1.8-1.3c1.2-0.8,2.5-1.6,3.9-2.4C106.2,266.1,119.6,277.4,119.7,277.6z"/>
	<path class="st4" d="M120.1,221.6l-0.1,5.9l-0.1,2.9l-0.1,5.9l-0.1,3l-0.1,5.9c-0.2,0.1-13.6,5.2-23.8,11.2
		c-1.4,0.8-2.7,1.6-3.9,2.4c-0.6,0.4-1.2,0.8-1.8,1.3c-1.1,0.8-2.2,1.7-3.2,2.7c-0.5,0.5-0.9,0.9-1.3,1.4c-0.9,1.2-1.5,2.3-1.6,3.4
		l0.1-4.9v0l0-0.8v-0.3l0.1-3.1l0.2-6.2l0.1-3l0.2-6.1C86.8,234.7,116.6,223,120.1,221.6z"/>
	<path class="st4" d="M92.6,228.1c4.9,0,8.8-3.9,8.8-8.6c0-4.8-3.9-8.6-8.8-8.6c-4.9,0-8.8,3.9-8.8,8.6
		C83.8,224.3,87.7,228.1,92.6,228.1z"/>
</g>
</svg>
